# xmcd
#
# Track frame offsets:
#	150
#	14728
#	30294
#	45756
#	60025
#	75840
#	92253
#	106520
#	122288
#	138958
#	152194
#	166083
#	181839
#	196432
#
# Disc length: 2758 seconds
#
# Revision: 2
# Processed by: cddbd v1.5.2PL0 Copyright (c) Steve Scherf et al.
# Submitted via: EasyCDDAExtractor 10.0.2.1
#
DISCID=860ac40e
DTITLE=João Luiz Corrêa and Vozes do Vento - De Rodeio em Rodeio
DYEAR=2000
DGENRE=Country
TTITLE0=Tá Chiando a Chaleira
TTITLE1=Procurando Cambicho
TTITLE2=De Rodeio em Rodeio
TTITLE3=Batendo Casco
TTITLE4=Sul dos Mates
TTITLE5=Canção a um Bem-Querer
TTITLE6=Tirando Lasca
TTITLE7=Bugio dos Pampas
TTITLE8=Milonga e Saudade
TTITLE9=Casamento é uma Gaiola
TTITLE10=Juntando Lembranças
TTITLE11=Recanto da Natureza
TTITLE12=Chinita Aragana
TTITLE13=curaço de Gaita
EXTD=
EXTT0=
EXTT1=
EXTT2=
EXTT3=
EXTT4=
EXTT5=
EXTT6=
EXTT7=
EXTT8=
EXTT9=
EXTT10=
EXTT11=
EXTT12=
EXTT13=
PLAYORDER=
